{"title":"King Of New York 1990 DVDRip Xvid AC3 LKRG","uid":6732283,"size":968864272,"categoryP":"video","categoryS":"movies","magnet":"?xt=urn:btih:7e600b05721293bbff0ef91eebfd64f8e97d5656&amp;dn=King+Of+New+York+1990+DVDRip+Xvid+AC3+LKRG&amp;tr=udp%3A%2F%2Ftracker.openbittorrent.com%3A80&amp;tr=udp%3A%2F%2Fopen.demonii.com%3A1337&amp;tr=udp%3A%2F%2Ftracker.coppersurfer.tk%3A6969&amp;tr=udp%3A%2F%2Fexodus.desync.com%3A6969","seeders":1,"leechers":0,"uploader":".BONE.","files":2,"time":1318204053,"description":"PLOT\n\nA former drug lord returns from prison determined to wipe out all his competition and distribute the\nprofits of his operations to New York's poorand lower classes in this stylish and ultra violent modern\ntwist on Robin Hood.\n &lt;a href=&quot;\nhttp://www.imdb.com/title/tt0099939/&quot; rel=&quot;nofollow&quot; target=&quot;_NEW&quot;&gt;\nhttp://www.imdb.com/title/tt0099939/&lt;/a&gt;\n\nEncoded By .......: The One and Only LKRG Encoder\nRuntime ..........: 1h 43mn\nFile Size ........: 924 MB\nResolution .......: 704 x 396\nIMDb URL .........: http://www.imdb.com/title/tt0099939/\nGenre ............: Crime,Drama,Thriller\nLanguage .........: English\nSubtitles ........: None\nVideo\nID : 0\nFormat : MPEG-4 Visual\nFormat profile : Advanced Simple@L5\nFormat settings, BVOP : Yes\nFormat settings, QPel : No\nFormat settings, GMC : No warppoints\nFormat settings, Matrix : Default (H.263)\nCodec ID : XVID\nCodec ID/Hint : XviD\nDuration : 1h 43mn\nBit rate : 800 Kbps\nWidth : 704 pixels\nHeight : 396 pixels\nDisplay aspect ratio : 16:9\nFrame rate : 23.976 fps\nColor space : YUV\nChroma subsampling : 4:2:0\nBit depth : 8 bits\nScan type : Progressive\nCompression mode : Lossy\nBits/(Pixel*Frame) : 0.120\nStream size : 590 MiB (64%)\nWriting library : XviD 1.2.1 (UTC 2008-12-04)\nAudio\nID : 1\nFormat : AC-3\nFormat/Info : Audio Coding 3\nMode extension : CM (complete main)\nCodec ID : 2000\nDuration : 1h 43mn\nBit rate mode : Constant\nBit rate : 448 Kbps\nChannel(s) : 6 channels\nChannel positions : Front: L C R, Side: L R, LFE\nSampling rate : 48.0 KHz\nBit depth : 16 bits\nCompression mode : Lossy\nVideo delay : 42ms\nStream size : 330 MiB (36%)\nAlignment : Split accross interleaves\nInterleave, duration : 500 ms (11.99 video frames)\nInterleave, preload duration : 500 ms\n","torrent":{"xt":"urn:btih:7e600b05721293bbff0ef91eebfd64f8e97d5656","amp;dn":"King+Of+New+York+1990+DVDRip+Xvid+AC3+LKRG","amp;tr":["udp%3A%2F%2Ftracker.openbittorrent.com%3A80","udp%3A%2F%2Fopen.demonii.com%3A1337","udp%3A%2F%2Ftracker.coppersurfer.tk%3A6969","udp%3A%2F%2Fexodus.desync.com%3A6969"],"infoHash":"7e600b05721293bbff0ef91eebfd64f8e97d5656","infoHashBuffer":{"type":"Buffer","data":[126,96,11,5,114,18,147,187,255,14,249,30,235,253,100,248,233,125,86,86]},"announce":[],"urlList":[]}}